<svg width="142" height="124" viewBox="0 0 142 124" fill="none" xmlns="http://www.w3.org/2000/svg">
<path d="M9.43945 4.58008L34.4639 19.4562L25.4834 22.5562L37.8291 36.5862L11.2285 21.8281L20.5107 18.8721L9.43945 4.58008Z" fill="#EC1C24"/>
<path d="M46.0127 0.327148L53.9385 14.5841L48.7148 13.5541L50.7383 23.8281L42.0186 9.18518L47.3467 10.3701L46.0127 0.327148Z" fill="#EC1C24"/>
<path d="M0.491211 48.7402L19.6592 50.1992L15.2588 54.6682L26.6777 59.3462L6.61621 58.4182L11.2402 53.9473L0.491211 48.7402Z" fill="#EC1C24"/>
<path d="M126.246 72.913L129.346 74.896L130.198 73.245C132.69 75.936 133.904 75.668 136.954 71.501V74.7581L141.375 75.037V123.765H106.1V78.111C105.483 78.031 104.875 77.8934 104.284 77.7C103.459 77.315 102.684 76.8199 101.891 76.3719C102.8 75.8889 103.674 75.093 104.624 74.989C106.708 74.8573 108.797 74.8352 110.884 74.923L111.114 71.6C113.691 78.379 117.214 72.629 120.978 74.693C121.935 77.993 123.287 72.693 124.815 72.986L126.246 72.913Z" fill="#0B183B"/>
<path d="M84.2386 49.9179C83.5502 49.2917 82.9143 48.6097 82.3382 47.879C80.1922 44.679 78.2036 41.3789 75.9886 38.2289C74.0566 35.4849 70.7169 34.8089 68.3499 36.5679C65.4889 38.6949 64.8712 41.857 67.1272 44.227C72.4882 49.858 71.56 54.964 67.597 60.869C63.284 67.299 64.5303 66.688 69.9163 71.869C73.4633 75.279 77.2806 78.4079 80.9876 81.6509C82.0925 82.531 82.8794 83.7478 83.2298 85.1163C83.5801 86.4847 83.4741 87.9302 82.928 89.233C79.506 99.133 76.1132 109.033 72.5892 118.898C71.1092 123.045 67.911 124.598 64.179 123.305C60.565 122.057 58.9796 118.622 60.3186 114.615C63.1756 106.074 66.1112 97.558 69.1292 88.696C63.4422 83.546 57.8112 78.102 51.7972 73.119C47.3062 69.397 46.0825 65.1689 47.5745 59.6789C50.1347 50.2742 54.944 41.6334 61.5882 34.5019C64.9672 30.8189 69.2474 28.9169 74.1634 30.3609C76.4092 31.0267 78.3246 32.5089 79.5325 34.5159C81.8325 39.2229 83.3712 44.2999 85.2142 49.2289L84.2386 49.9179Z" fill="#0B183B"/>
<path d="M78.9204 24.347C78.8653 22.8127 79.1228 21.2832 79.6762 19.8511C80.2296 18.4191 81.0676 17.1142 82.1401 16.0157C83.2126 14.9171 84.4971 14.0477 85.9155 13.46C87.3338 12.8724 88.8559 12.5788 90.3911 12.597C97.3371 12.559 102.33 17.442 102.337 24.279C102.355 25.8252 102.067 27.3596 101.489 28.7938C100.911 30.2279 100.055 31.5332 98.9692 32.6346C97.8838 33.7359 96.591 34.6114 95.1655 35.2104C93.7399 35.8094 92.2098 36.1201 90.6635 36.1246C89.1172 36.1291 87.5847 35.8272 86.1557 35.2365C84.7267 34.6458 83.4291 33.7779 82.3374 32.6829C81.2456 31.5879 80.3819 30.2875 79.7954 28.8568C79.2089 27.426 78.9113 25.8933 78.9204 24.347Z" fill="#0B183B"/>
<path d="M81.4001 61.0108C80.2491 60.1108 78.7614 59.4108 77.9304 58.2358C74.4824 53.3668 71.2017 48.3768 67.9187 43.3918C66.2747 40.8918 66.975 38.7708 69.403 37.2988C71.874 35.7988 73.7022 37.0118 75.1022 39.1048C77.2372 42.2988 79.4026 45.4779 81.3786 48.7699C82.5906 50.7899 83.7304 51.4599 86.1784 50.4779C91.3132 48.3626 96.5813 46.5851 101.948 45.1568C103.382 44.7908 106.104 46.1428 106.857 47.4808C107.471 48.5728 106.486 51.9538 105.431 52.3808C97.7043 55.4688 89.7781 58.0718 81.4001 61.0108Z" fill="#0B183B"/>
<path d="M126.246 72.9128L124.815 72.9858C124.587 68.8578 121.489 71.7159 120.18 71.5519C116.88 71.1389 113.68 71.2239 111.085 68.6819C108.666 66.3109 105.608 66.4819 102.81 68.5819C101.658 69.4449 99.5803 70.3819 98.5703 69.9049C93.7583 67.6469 89.1702 64.9158 84.1592 62.1628C91.6652 57.4348 96.9857 57.6398 102.43 63.1688C103.155 64.0007 104.095 64.6182 105.146 64.9542C106.198 65.2902 107.32 65.3319 108.394 65.0748C111.394 64.6038 114.38 64.1098 117.301 63.6378C116.96 61.9978 116.619 60.3599 116.112 57.9209L107.556 52.3209L108.513 50.7329L118.552 56.8259C118.871 55.8589 119.252 54.6989 119.567 53.7479L128.867 59.3009L126.948 63.3619C129.516 63.5207 132.073 63.819 134.607 64.2559C137.986 65.0189 138.631 67.2139 135.788 69.0499C133.588 70.4689 130.572 70.5878 127.965 71.4288C127.3 71.6458 126.815 72.4048 126.246 72.9128ZM112.646 64.9009V66.5339C119.997 67.9049 127.346 68.4139 135.833 66.0739C131.376 64.8959 128.127 63.3739 124.657 65.6559C124.157 65.9839 123.235 65.7008 122.511 65.6478C119.228 65.4088 115.938 65.1519 112.648 64.8999L112.646 64.9009Z" fill="#0B183B"/>
<path d="M119.335 50C118.808 46.9392 118.452 43.8514 118.27 40.751C118.259 38.5 118.998 36.245 119.444 33.769C119.828 37.506 120.349 40.651 120.403 43.804C120.435 45.75 119.756 47.71 119.335 50Z" fill="#0B183B"/>
<path d="M131.526 34.5459C131.526 37.1799 131.558 39.8159 131.515 42.4459C131.546 44.7938 131.297 47.137 130.773 49.4259C130.24 46.6859 129.893 43.9128 129.736 41.1259C129.736 38.7569 130.517 36.3899 130.953 34.0259L131.526 34.5459Z" fill="#0B183B"/>
<path d="M126.456 34.4492C125.559 35.5837 125.007 36.9523 124.867 38.3917C124.726 39.8311 125.003 41.2806 125.663 42.5673C126.41 44.2143 125.796 46.4772 125.309 48.4442C126.841 43.8522 120.595 38.5872 126.456 34.4492Z" fill="#0B183B"/>
<path d="M112.648 64.9C115.938 65.151 119.227 65.4079 122.518 65.6469C123.242 65.6999 124.164 65.983 124.664 65.655C128.134 63.375 131.383 64.8949 135.84 66.0729C127.349 68.4129 120.004 67.9039 112.653 66.5329L112.648 64.9Z" fill="#0B183B"/>
</svg>
