<svg width="257" height="257" viewBox="0 0 257 257" fill="none" xmlns="http://www.w3.org/2000/svg">
<path d="M185.881 185.881C225.135 146.626 231.257 89.1044 199.555 57.4021C167.852 25.6997 110.331 31.8218 71.0762 71.0761C31.8219 110.33 25.6999 167.852 57.4022 199.555C89.1046 231.257 146.626 225.135 185.881 185.881Z" fill="#E6E7E8"/>
<path d="M128.478 198.635C166.307 198.635 196.973 167.968 196.973 130.14C196.973 92.3108 166.307 61.6445 128.478 61.6445C90.6497 61.6445 59.9834 92.3108 59.9834 130.14C59.9834 167.968 90.6497 198.635 128.478 198.635Z" fill="#0B183B"/>
<path d="M138.253 102.834V160.331H118.868V117.455H109.012V102.834H138.253Z" fill="white"/>
</svg>
