<svg width="145" height="108" viewBox="0 0 145 108" fill="none" xmlns="http://www.w3.org/2000/svg">
<path d="M66.2714 66.7838C72.0794 68.8288 77.5936 70.8698 83.1786 72.6978C86.3226 73.699 89.104 75.6001 91.1786 78.1658C95.9196 83.8828 100.822 89.4658 105.688 95.0808C107.731 97.4358 107.888 99.9968 106.788 102.781C105.675 105.592 103.288 106.531 100.605 106.81C97.8664 107.095 96.0186 105.329 94.3886 103.471C89.9976 98.4617 85.7419 93.3327 81.2889 88.3707C80.1737 87.1384 78.7832 86.1872 77.2304 85.5947C68.6074 82.4467 59.9237 79.4588 51.2557 76.4348C43.9557 73.8868 41.1411 68.4578 43.3241 61.1098C45.8521 52.6038 48.3236 44.0818 50.8886 35.5868C51.5035 33.312 52.8243 31.2905 54.66 29.8129C56.4957 28.3353 58.7526 27.4776 61.1063 27.3628C63.6094 27.2117 66.0986 27.8251 68.245 29.1217C70.3914 30.4183 72.0931 32.3369 73.1239 34.6228C73.225 35.0089 73.2992 35.4014 73.3466 35.7977C71.1084 34.3791 68.7793 33.1097 66.3739 31.9978C64.5812 31.2408 62.6227 30.9633 60.6903 31.1928C57.9753 31.6618 56.4096 33.8268 56.0536 36.5628C55.8356 37.8244 56.0157 39.1225 56.5692 40.277C57.1228 41.4314 58.0222 42.3849 59.1425 43.0048C62.5585 45.0461 66.0255 47.0017 69.5429 48.8717C69.8262 48.9591 70.0867 49.1084 70.3055 49.3085C70.5244 49.5086 70.6962 49.7547 70.8085 50.0292C70.9208 50.3037 70.9708 50.5996 70.955 50.8958C70.9391 51.1919 70.8576 51.4808 70.7167 51.7417C69.1817 56.6207 67.8064 61.5518 66.2714 66.7838Z" fill="#0B183B"/>
<path d="M81.8266 41.8998C81.8266 35.5428 81.8326 29.6698 81.8266 23.7998C81.8266 20.3468 83.543 17.9998 86.393 17.6278C89.538 17.2128 92.3664 19.1768 92.4614 22.4198C92.6994 30.4448 92.9345 38.4927 92.5835 46.5057C92.3345 52.1847 85.494 55.9488 80.353 53.3358C73.338 49.7698 66.5371 45.7748 59.7221 41.8278C58.5605 41.117 57.7276 39.9756 57.4048 38.6526C57.0819 37.3296 57.2958 35.9326 57.9995 34.7667C58.3364 34.1627 58.7896 33.6312 59.3325 33.2028C59.8754 32.7743 60.4978 32.4573 61.1635 32.27C61.8293 32.0827 62.5247 32.0287 63.2114 32.1112C63.8981 32.1937 64.5621 32.411 65.1645 32.7507C69.9455 35.3217 74.6442 38.0408 79.3852 40.6868C80.0872 41.0798 80.8286 41.4088 81.8266 41.8998Z" fill="#0B183B"/>
<path d="M56.8165 13.5437C56.8079 10.998 57.5526 8.50689 58.9581 6.38435C60.3636 4.26182 62.3669 2.60301 64.714 1.61714C67.061 0.631274 69.647 0.362461 72.1466 0.84468C74.6462 1.3269 76.947 2.53854 78.7589 4.32674C80.5707 6.11493 81.8122 8.39962 82.3272 10.8927C82.8423 13.3857 82.6074 15.9754 81.6524 18.3352C80.6975 20.695 79.0659 22.7192 76.962 24.1524C74.8581 25.5857 72.3767 26.3638 69.8311 26.3887C68.1284 26.4174 66.4374 26.1059 64.8565 25.4726C63.2757 24.8394 61.8371 23.897 60.6251 22.7008C59.413 21.5045 58.4519 20.0784 57.7979 18.5061C57.1439 16.9337 56.8103 15.2466 56.8165 13.5437Z" fill="#0B183B"/>
<path d="M103.33 60.8555H112.198V103.4L108.528 103.199C110.228 98.3735 107.598 95.2455 104.866 92.0255C103.955 90.8683 103.44 89.4489 103.397 87.9766C103.269 79.0416 103.33 70.0995 103.33 60.8555Z" fill="#0B183B"/>
<path d="M140.792 55.5996V59.2336H74.9004V55.5996H140.792Z" fill="#0B183B"/>
<path d="M61.708 81.9949H50.5391C46.1741 81.9949 41.8083 82.0619 37.4473 81.9269C36.7223 81.9049 35.4826 81.0839 35.3926 80.4949C33.5206 68.0949 31.7782 55.6699 29.9932 43.1629C31.8332 42.5239 32.7926 42.5999 33.1006 44.8799C34.4506 55.0439 36.024 65.1799 37.417 75.3349C37.646 76.9939 38.2842 77.6249 39.9092 77.4709C40.8962 77.3779 41.9086 77.5709 42.8916 77.4419C49.6646 76.5649 55.633 79.2669 61.708 81.9949Z" fill="#0B183B"/>
<path d="M67.8516 65.9694C68.2786 64.5764 68.6106 63.4915 68.9756 62.2945C73.9596 62.2945 78.9413 61.9854 83.8643 62.3814C88.7473 62.7744 92.681 67.1985 93.123 72.0815C93.293 73.9695 93.1504 75.8814 93.1504 77.8814C92.8644 77.8024 92.5744 77.8145 92.4844 77.6815C89.8264 73.9025 85.9424 72.1355 81.6904 70.7965C77.1114 69.3615 72.6186 67.6484 67.8516 65.9694Z" fill="#0B183B"/>
<path d="M92.3695 103.137C90.7955 106.246 88.16 106.924 85.182 106.756C82.87 106.624 79.6992 104.274 79.5522 102.036C79.2622 97.5938 79.4662 93.1187 79.4662 88.1357L92.3695 103.137Z" fill="#0B183B"/>
<path d="M116.844 54.1289C112.559 54.1289 108.274 54.1769 103.991 54.0819C103.282 54.0659 102.591 53.4249 101.885 53.0729C102.573 52.7109 103.257 52.0399 103.948 52.0339C112.057 51.9599 120.17 51.9398 128.279 52.0228C128.946 52.1037 129.619 51.9532 130.188 51.5963C130.756 51.2395 131.185 50.6981 131.401 50.0629C134.977 42.4629 138.625 34.8962 142.348 27.3629C142.62 26.8109 143.482 26.5488 144.068 26.1528C144.131 26.8528 144.474 27.6938 144.214 28.2468C140.376 36.4008 136.426 44.5019 132.596 52.6599C132.424 53.151 132.087 53.5674 131.643 53.8383C131.198 54.1092 130.675 54.2179 130.159 54.1459C125.72 54.0999 121.282 54.1279 116.844 54.1289Z" fill="#0B183B"/>
<path d="M40.5342 83.3408L43.1709 83.4579C41.8229 90.2499 40.5169 96.8269 39.2109 103.404C39.1148 104.237 38.9332 105.058 38.6689 105.854C38.4589 106.342 37.8471 106.654 37.4141 107.047L36.8438 106.631C38.0577 98.9719 39.2712 91.3118 40.5342 83.3408Z" fill="#0B183B"/>
<path d="M67.4463 106.911C65.8593 99.1598 64.2715 91.4107 62.6465 83.4688H65.3818C66.4008 91.2688 68.1821 98.9117 68.7061 106.725L67.4463 106.911Z" fill="#0B183B"/>
<path d="M105.378 106.924C107.365 104.259 109.806 104.804 111.996 104.696C113.752 104.633 115.51 104.709 117.254 104.922C117.84 104.985 118.372 105.538 118.929 105.868C118.361 106.22 117.799 106.862 117.222 106.876C113.425 106.968 109.624 106.924 105.378 106.924Z" fill="#0B183B"/>
<path d="M8.39062 13.7798L30.291 26.7948L22.4326 29.5078L33.2334 41.7827L9.96289 28.8707L18.085 26.2848L8.39062 13.7798Z" fill="#EC1C24"/>
<path d="M40.3896 10.0586L47.3242 22.5326L42.7539 21.6327L44.5254 30.6216L36.8975 17.8107L41.5586 18.8477L40.3896 10.0586Z" fill="#EC1C24"/>
<path d="M0.561523 52.4165L17.333 53.6925L13.4805 57.6025L23.4707 61.6956L5.91797 60.8835L9.96289 56.9716L0.561523 52.4165Z" fill="#EC1C24"/>
</svg>
