<svg width="117" height="144" viewBox="0 0 117 144" fill="none" xmlns="http://www.w3.org/2000/svg">
<path d="M96.6269 30.812C102.845 35.179 108.415 38.88 113.744 42.901C118.179 46.247 117.457 52.306 112.411 54.776C106.216 57.808 99.9599 60.7117 93.6425 63.4871C91.3305 64.5111 89.8433 65.832 89.9433 68.504C89.9233 69.0188 89.8498 69.5301 89.7255 70.03C88.6085 76.389 87.973 82.408 90.997 88.821C94.41 96.061 94.0583 104.265 93.7333 112.236C93.6483 114.315 92.4653 115.059 90.7753 114.956C83.6073 114.517 76.4209 114.163 69.2949 113.329C65.3308 112.705 61.4235 111.766 57.6093 110.519C55.888 109.863 54.2223 109.068 52.6298 108.142C54.3218 105.913 55.7578 104.084 57.1298 102.205C58.7038 100.042 60.0782 97.719 61.7822 95.668C69.1982 86.747 68.3866 76.682 65.8896 66.421C65.4097 65.3387 64.5355 64.4803 63.4443 64.021C57.4243 61.099 51.3373 58.3211 45.2753 55.4871C38.1163 52.1401 37.654 46.172 44.206 41.61C49.0207 38.258 53.845 34.9196 58.6796 31.595C58.8126 31.503 59.0639 31.583 59.6699 31.583C59.6699 34.176 59.8058 36.806 59.5898 39.408C59.3317 40.3599 58.7326 41.1837 57.9062 41.722C55.0612 43.856 52.1202 45.859 48.5732 48.363C56.2012 51.004 62.096 55.221 69.914 56.032C75.3159 56.6471 80.7687 56.6662 86.1747 56.089C94.0157 55.239 99.9145 50.957 107.728 48.476C105.236 46.4948 102.64 44.6482 99.9501 42.944C97.2431 41.429 96.2016 39.453 96.5956 36.437C96.7137 34.5642 96.7243 32.6861 96.6269 30.812Z" fill="#0B183B"/>
<path d="M69.2005 54.3238C67.8087 54.408 66.4131 54.3974 65.0228 54.2918C62.2018 53.8788 60.6228 52.7038 60.7308 49.2658C61.0168 40.5328 60.8915 31.7838 60.7835 23.0428C60.7545 20.7138 61.3407 19.7539 63.8607 19.7839C73.4247 19.8969 82.9919 19.8199 92.5599 19.8059C94.0659 19.8059 95.5035 19.7558 95.4935 21.9318C95.4585 28.7088 95.4788 35.4859 95.4788 42.2319C91.9788 42.6899 89.6319 42.1139 87.6439 38.7579C84.5289 33.4979 77.3577 32.3198 72.0657 35.3978C69.458 36.917 67.5183 39.3637 66.6351 42.2496C65.7518 45.1355 65.9893 48.2484 67.3001 50.9669C67.8161 52.0469 68.4775 53.0608 69.2005 54.3238Z" fill="#0B183B"/>
<path d="M78.2822 34.9468C79.726 34.9505 81.1544 35.2454 82.4815 35.814C83.8085 36.3826 85.0064 37.2133 86.0049 38.2561C87.0034 39.299 87.7815 40.5326 88.292 41.8831C88.8025 43.2336 89.0347 44.6732 88.9756 46.1158C88.9089 48.9769 87.714 51.6956 85.6504 53.6786C83.5868 55.6616 80.8225 56.7481 77.9609 56.7008C75.0997 56.6468 72.373 55.4753 70.3643 53.4371C68.3555 51.3988 67.2242 48.6555 67.2119 45.7937C67.2104 44.35 67.4971 42.9205 68.0557 41.5892C68.6142 40.2578 69.4336 39.0515 70.4648 38.0411C71.4961 37.0306 72.7191 36.2365 74.0615 35.7051C75.4039 35.1737 76.8388 34.9159 78.2822 34.9468Z" fill="#0B183B"/>
<path d="M74.9242 115.6C78.2732 115.846 81.5334 116.071 84.7914 116.345C85.1858 116.399 85.5504 116.585 85.8256 116.873C91.0336 122.381 96.1962 127.93 101.425 133.422C104.025 136.155 104.301 139.198 102.02 141.586C99.7009 144.013 96.6801 143.942 93.8861 141.26C88.3161 135.911 82.7445 130.56 77.2865 125.102C76.0177 123.915 75.1197 122.386 74.7006 120.7C74.2815 119.014 74.3588 117.242 74.9242 115.6Z" fill="#0B183B"/>
<path d="M56.5992 111.64L66.7272 114.167C68.0192 121.19 69.2531 127.882 70.4801 134.575C70.6784 135.476 70.8263 136.389 70.9244 137.307C71.1534 140.4 69.5494 142.65 66.7604 143.237C63.7874 143.862 61.0482 142.412 60.3922 139.337C58.7842 131.811 57.3546 124.244 56.0426 116.661C55.7806 115.161 56.3672 113.509 56.5992 111.64Z" fill="#0B183B"/>
<path d="M100.147 61.814C99.6187 68.353 101.058 69.784 108.594 70.641C103.973 74.381 95.9942 72.831 93.5432 67.787C92.7002 66.048 92.8601 64.945 94.7981 64.213C96.5151 63.564 98.1557 62.717 100.147 61.814Z" fill="#0B183B"/>
<path d="M89.9736 43.729C95.3736 42.812 98.738 44.851 100.666 50.105L96.0596 52.405C94.0146 50.238 92.1747 48.445 90.5527 46.472C90.0607 45.872 90.1726 44.777 89.9736 43.729Z" fill="#0B183B"/>
<path d="M90.3184 47.936C93.0464 48.688 94.318 50.96 93.209 52.799C92.394 54.158 89.5542 54.299 87.6162 54.986L87.2734 54.132C88.2474 52.15 89.2214 50.168 90.3184 47.936Z" fill="#0B183B"/>
<path d="M8.19336 3.88965L29.4678 16.5366L21.832 19.1726L32.332 31.1006L9.72168 18.5536L17.6143 16.0406L8.19336 3.88965Z" fill="#EC1C24"/>
<path d="M39.2871 0.273926L46.0244 12.3949L41.584 11.5189L43.3047 20.2529L35.8916 7.80383L40.4219 8.81189L39.2871 0.273926Z" fill="#EC1C24"/>
<path d="M0.585938 41.4336L16.8857 42.6736L13.1426 46.4736L22.8506 50.4507L5.79395 49.6616L9.72559 45.8617L0.585938 41.4336Z" fill="#EC1C24"/>
</svg>
