<svg width="258" height="257" viewBox="0 0 258 257" fill="none" xmlns="http://www.w3.org/2000/svg">
<path d="M186.859 185.881C226.114 146.626 232.236 89.1044 200.533 57.4021C168.831 25.6997 111.309 31.8218 72.0548 71.0761C32.8004 110.33 26.6784 167.852 58.3807 199.555C90.0831 231.257 147.605 225.135 186.859 185.881Z" fill="#E6E7E8"/>
<path d="M129.456 193.807C167.285 193.807 197.951 163.141 197.951 125.312C197.951 87.4836 167.285 56.8174 129.456 56.8174C91.6272 56.8174 60.9609 87.4836 60.9609 125.312C60.9609 163.141 91.6272 193.807 129.456 193.807Z" fill="#0B183B"/>
<path d="M137.241 119.762C141.677 120.857 145.072 122.856 147.427 125.758C149.836 128.605 151.041 132.055 151.041 136.107C151.041 139.557 150.082 142.788 148.166 145.8C146.304 148.757 143.402 151.166 139.459 153.028C135.517 154.89 130.616 155.821 124.756 155.821C120.704 155.821 116.652 155.383 112.6 154.507C108.602 153.63 105.098 152.344 102.086 150.646L108.657 136.354C111.012 137.723 113.531 138.763 116.214 139.475C118.952 140.187 121.58 140.543 124.099 140.543C126.344 140.543 128.151 140.16 129.52 139.393C130.889 138.626 131.574 137.531 131.574 136.107C131.574 133.479 129.301 132.165 124.756 132.165H117.117V120.255L125.578 111.63H105.043V97.0093H147.92V108.919L137.241 119.762Z" fill="white"/>
</svg>
