<svg width="124" height="123" viewBox="0 0 124 123" fill="none" xmlns="http://www.w3.org/2000/svg">
<path d="M63.2995 60.046C68.2995 63.408 73.2685 66.808 78.2995 70.119C81.3835 72.149 82.5559 75.032 82.6169 78.592C82.7919 88.761 80.8519 98.6211 78.3659 108.404C77.7459 110.842 77.1305 113.286 76.3825 115.685C74.9695 120.215 70.8552 122.545 66.5192 121.369C62.2192 120.203 59.8986 116.069 60.8796 111.469C62.6796 103.012 64.4261 94.5421 66.2341 86.0861C66.9221 82.8671 66.2106 80.4969 62.9616 78.9919C58.0416 76.7129 53.2194 74.2201 48.3884 71.7531C45.2644 70.1531 41.9086 68.8261 39.1696 66.7111C33.0576 61.9911 33.5424 55.221 37.4694 49.171C37.724 48.7471 38.1216 48.428 38.5905 48.271C45.6495 46.828 52.6986 45.324 59.7976 44.113C61.6649 43.8446 63.5707 44.0832 65.3142 44.804C70.8852 47.127 76.3238 49.773 81.8298 52.256C86.2298 54.241 90.1009 53.125 91.9069 49.413C93.7569 45.613 92.0968 41.759 87.6198 39.637C82.1088 37.026 76.5704 34.473 71.1364 31.623C77.2734 31.704 83.3125 32.188 88.5515 35.804C90.1877 36.9068 91.5762 38.3393 92.6267 40.0096C93.6771 41.68 94.3669 43.5515 94.652 45.504C95.607 51.33 92.3685 56.412 86.5515 57.224C82.1985 57.833 77.7134 57.424 73.3054 57.73C69.8664 57.968 66.454 58.604 63.031 59.063L63.2995 60.046Z" fill="#0B183B"/>
<path d="M62.4661 30.2329C63.9758 30.6034 65.4643 31.0554 66.9251 31.5869C73.9251 34.6719 80.9255 37.7609 87.8655 40.9749C88.5975 41.2622 89.263 41.6959 89.8216 42.2494C90.3801 42.8029 90.8195 43.4645 91.1135 44.1938C91.4076 44.9232 91.55 45.7048 91.5315 46.491C91.513 47.2771 91.3341 48.0512 91.0061 48.7659C89.6831 51.8139 86.255 53.0408 82.843 51.5228C76.958 48.9038 71.1617 46.0789 65.2317 43.5709C63.5793 42.8852 61.767 42.6772 60.0022 42.9708C54.4782 44.0408 48.9902 45.3449 43.5462 46.7769C39.4232 47.8619 36.1878 46.6919 35.1038 43.3429C33.9978 39.9249 35.7429 36.6869 39.8469 35.6129C47.5239 33.5999 55.2891 31.9209 62.4661 30.2329Z" fill="#0B183B"/>
<path d="M96.0508 44.0798C96.048 41.3527 96.8541 38.6862 98.3672 36.4174C99.8803 34.1486 102.032 32.3795 104.551 31.334C107.07 30.2886 109.843 30.0136 112.518 30.544C115.193 31.0744 117.65 32.3864 119.579 34.3138C121.508 36.2412 122.823 38.6975 123.355 41.372C123.888 44.0465 123.615 46.8189 122.572 49.3386C121.529 51.8582 119.763 54.0119 117.495 55.5272C115.228 57.0424 112.562 57.851 109.835 57.8508C108.024 57.8562 106.231 57.5038 104.557 56.8138C102.883 56.1238 101.362 55.1099 100.081 53.8303C98.8002 52.5506 97.7844 51.0304 97.0928 49.3571C96.4012 47.6838 96.0471 45.8903 96.0508 44.0798Z" fill="#0B183B"/>
<path d="M56.5764 76.3999C59.3063 77.9852 61.9508 79.7129 64.4992 81.5759C65.2262 82.1529 65.3784 83.9959 65.1584 85.1359C63.5411 93.5159 61.8234 101.877 60.006 110.218C59.33 113.332 59.6849 116.611 56.9689 119.331C53.1689 123.142 48.6942 124.145 44.9592 121.111C41.4002 118.22 41.1862 113.43 44.2082 109.255C49.1582 102.417 53.9349 95.4549 58.8859 88.6179C60.9769 85.7319 60.8523 83.2029 58.4963 80.5739C57.6057 79.4269 56.803 78.2142 56.0959 76.9459L56.5764 76.3999Z" fill="#0B183B"/>
<path d="M8.05176 3.86963L28.0596 15.7626L20.8789 18.2416L30.749 29.4586L9.48633 17.6587L16.9072 15.2957L8.05176 3.86963Z" fill="#EC1C24"/>
<path d="M37.292 0.469727L43.6279 11.8698L39.4521 11.0458L41.0693 19.2598L34.0986 7.55273L38.3594 8.50073L37.292 0.469727Z" fill="#EC1C24"/>
<path d="M0.900391 39.1748L16.2236 40.3407L12.7031 43.9137L21.833 47.6538L5.79297 46.9117L9.49316 43.3368L0.900391 39.1748Z" fill="#EC1C24"/>
</svg>
