<svg width="101" height="127" viewBox="0 0 101 127" fill="none" xmlns="http://www.w3.org/2000/svg">
<path d="M8.30859 4.14648L30.2041 17.1615L22.3467 19.8745L33.1475 32.1495L9.87695 19.2375L17.998 16.6515L8.30859 4.14648Z" fill="#EC1C24"/>
<path d="M40.3066 0.424805L47.2412 12.8988L42.6719 11.9988L44.4434 20.9878L36.8154 8.17676L41.4756 9.21375L40.3066 0.424805Z" fill="#EC1C24"/>
<path d="M0.478516 42.7837L17.25 44.0597L13.3975 47.9696L23.3877 52.0626L5.83398 51.2506L9.87988 47.3386L0.478516 42.7837Z" fill="#EC1C24"/>
<path d="M62.5497 46.3999C61.7497 47.2509 61.7366 48.6129 61.6766 49.8839C61.4226 55.3119 61.4987 60.7098 63.3387 65.9338C64.1556 68.5208 65.4827 70.9179 67.2411 72.9838C68.9994 75.0496 71.1538 76.7423 73.577 77.9619C73.7781 78.081 73.9494 78.2439 74.0789 78.4385C74.2085 78.6331 74.2929 78.8544 74.325 79.0859C74.2724 86.762 75.547 94.3893 78.0936 101.631C78.1414 101.844 78.1778 102.06 78.202 102.277L65.7479 105.058C65.5569 106.651 65.4165 108.501 65.0985 110.319C64.4095 114.262 63.7458 118.219 62.8358 122.11C62.6356 123.124 62.1702 124.066 61.4862 124.841C60.8021 125.616 59.9245 126.195 58.9432 126.519C57.9 126.821 56.7873 126.781 55.7684 126.405C54.7495 126.029 53.8778 125.338 53.2801 124.431C52.4364 123.234 51.8479 121.876 51.5516 120.442C51.2554 119.007 51.2571 117.527 51.5575 116.094C52.1245 112.712 52.6669 109.325 53.2079 105.938C53.2328 105.651 53.2347 105.364 53.2137 105.077C51.2427 104.605 49.2839 104.22 47.3729 103.666C38.3969 101.066 32.873 93.9178 32.284 84.5848C32.0287 78.1902 32.9439 71.8027 34.9842 65.7369C36.8672 59.5889 39.1457 53.5999 42.8397 48.2559C46.2917 43.2629 50.4151 39.0388 56.2401 36.8558C59.3746 35.5538 62.8485 35.313 66.1327 36.1699C69.9997 37.2699 71.9538 40.2098 72.7538 43.8928C73.2039 46.4447 73.5193 49.0187 73.6981 51.6039C74.4841 58.8369 77.3357 64.9529 83.4637 69.1699C84.8092 69.9566 86.2697 70.5278 87.7918 70.8629C89.8508 71.4629 91.9065 71.9529 93.0125 74.0819C93.1285 74.3049 93.5223 74.4379 93.8133 74.5059C98.4283 75.5859 100.72 79.2159 100.749 83.7909C100.808 93.7339 100.729 103.677 100.714 113.62C100.708 117.425 100.72 121.229 100.714 125.033C100.714 126.304 100.272 126.761 99.0243 126.781C98.2163 126.795 97.4094 126.791 96.6014 126.781C96.4084 126.798 96.2141 126.774 96.0311 126.71C95.8481 126.647 95.6812 126.544 95.5409 126.411C95.4005 126.277 95.2903 126.115 95.2176 125.935C95.1449 125.756 95.1111 125.563 95.119 125.369C95.098 125.114 95.1112 124.856 95.1112 124.599C95.1112 111.835 95.1059 99.0709 95.0965 86.3069C95.1033 84.8209 95.0032 83.3364 94.7967 81.8649C94.6097 80.5879 93.5541 80.0459 92.4061 79.7489C92.2842 79.7241 92.1588 79.7241 92.037 79.749C91.9151 79.7739 91.7995 79.8233 91.6971 79.8939C89.6291 81.5509 87.2763 81.4189 84.8973 80.9559C80.1271 80.1214 75.6866 77.9638 72.0829 74.7289C68.0628 71.1508 65.3341 66.3478 64.3182 61.0629C63.4002 56.1999 63.1067 51.2129 62.5497 46.3999Z" fill="#0B183B"/>
<path d="M64.6318 23.5828L55.1318 26.0568L54.7578 24.9127L64.4297 22.3717C64.244 20.995 64.3577 19.5944 64.7627 18.2655C65.1677 16.9366 65.8553 15.7108 66.7773 14.6718C67.7179 13.6283 68.86 12.7869 70.1357 12.1986C71.4114 11.6104 72.794 11.2875 74.1982 11.2498C74.0312 9.46476 73.849 7.70372 73.707 5.93872C73.565 4.19272 73.462 2.4387 73.334 0.569702L74.5 0.425781C74.814 4.08878 75.1216 7.6868 75.4346 11.3418C77.392 11.6546 79.2165 12.5289 80.6865 13.8588C81.3325 14.4988 81.8483 15.2678 82.4873 15.9108C82.6263 16.0685 82.7947 16.1972 82.9834 16.2897C83.1721 16.3822 83.3771 16.4365 83.5869 16.4497C87.2845 15.8112 91.085 16.6541 94.166 18.7959C97.247 20.9377 99.3612 24.2064 100.051 27.8948C100.74 31.5832 99.9496 35.3948 97.8506 38.5051C95.7515 41.6154 92.5125 43.7743 88.834 44.5148C86.9541 44.9061 85.0144 44.9129 83.1318 44.5349C81.2492 44.1569 79.463 43.402 77.8799 42.3153C76.2968 41.2287 74.9494 39.8328 73.9199 38.2119C72.8904 36.591 72.1993 34.7787 71.8887 32.8838C71.8624 32.1504 71.6172 31.4417 71.1836 30.8496C70.75 30.2575 70.1483 29.8092 69.457 29.5627C66.922 28.4307 65.5068 26.1998 64.6318 23.5828Z" fill="#0B183B"/>
</svg>
