<svg width="130" height="152" viewBox="0 0 130 152" fill="none" xmlns="http://www.w3.org/2000/svg">
<path d="M74.9683 69.4429C78.0003 75.5909 80.6941 81.0429 83.5161 86.7709C99.8461 78.5709 113.537 82.9789 126.097 93.6049C130.007 96.9129 130.652 100.16 128.171 103.073C125.749 105.917 122.713 105.296 118.445 102.642C113.354 99.297 107.876 96.5827 102.13 94.5588C97.2884 93.0018 92.2977 94.7719 87.6977 98.6069C90.6337 100.636 93.4245 102.338 95.9595 104.36C103.525 110.397 111.095 116.438 118.454 122.722C122.285 125.992 122.623 129.64 119.68 132.209C116.34 135.124 113.309 133.822 110.403 131.134C98.2098 119.861 85.1446 109.816 70.0766 102.579C68.5983 101.842 67.3829 100.666 66.5972 99.2129C62.4242 90.8909 58.5413 82.4219 54.3413 74.1129C53.523 72.4733 52.1451 71.1807 50.4565 70.4689C42.1125 67.7489 37.5249 63.0499 37.3569 54.2239C37.2419 48.1759 38.7129 42.0359 40.0649 36.0709C40.3449 34.8369 43.2286 34.1929 44.9136 33.2769C45.6076 34.9289 47.0137 36.6458 46.8677 38.2198C46.4117 43.1678 44.7947 48.0509 44.7007 52.9799C44.5637 60.0619 49.3937 63.9509 56.4927 63.3219C63.2927 62.7219 70.1025 62.1659 76.8735 61.3099C82.7245 60.5709 86.8825 56.9999 90.1655 52.3229C91.1215 50.9609 91.6317 49.1119 92.8657 48.1619C94.3337 47.0319 96.366 46.6309 98.147 45.9149C98.555 47.8199 99.8953 50.1888 99.2173 51.5538C94.8853 60.2668 88.6343 66.9389 78.4263 68.6409C77.6283 68.7739 76.8493 68.9999 74.9683 69.4429Z" fill="#0B183B"/>
<path d="M53.4433 48.215C53.3972 46.8361 53.626 45.4619 54.1181 44.173C54.6102 42.8841 55.3552 41.7065 56.3086 40.7093C57.2619 39.712 58.4054 38.9153 59.6709 38.3658C60.9363 37.8162 62.2981 37.5249 63.6777 37.5091C66.4246 37.4891 69.0695 38.5501 71.041 40.463C73.0124 42.376 74.1521 44.9874 74.2148 47.7337C74.2776 50.4799 73.2579 53.1408 71.3759 55.1418C69.4939 57.1428 66.9012 58.3235 64.1562 58.429C62.7762 58.4855 61.3989 58.2637 60.1064 57.7768C58.8139 57.2898 57.6324 56.5477 56.6328 55.5946C55.6331 54.6415 54.8351 53.497 54.2871 52.2292C53.7391 50.9613 53.4526 49.5962 53.4433 48.215V48.215Z" fill="#0B183B"/>
<path d="M8.2334 4.68604L30.1279 17.701L22.2715 20.4139L33.0713 32.689L9.80078 19.777L17.9219 17.191L8.2334 4.68604Z" fill="#EC1C24"/>
<path d="M40.2314 0.964844L47.165 13.4388L42.5957 12.5388L44.3672 21.5278L36.7393 8.71692L41.4004 9.75391L40.2314 0.964844Z" fill="#EC1C24"/>
<path d="M0.400391 43.3228L17.1709 44.5988L13.3184 48.5088L23.3076 52.6018L5.75488 51.7898L9.80078 47.8778L0.400391 43.3228Z" fill="#EC1C24"/>
<path d="M80.6787 135.455V123.655H66.7793V111.6H53.2793C53.0863 107.488 52.9119 103.756 52.7119 99.4938H39.0312V87.7588H21.458C21.464 88.9428 21.4697 90.1507 21.4697 91.4127H21.5439V151.767H93.5273V135.456L80.6787 135.455Z" fill="#0B183B"/>
</svg>
