<svg width="258" height="257" viewBox="0 0 258 257" fill="none" xmlns="http://www.w3.org/2000/svg">
<path d="M186.36 185.881C225.615 146.626 231.737 89.1044 200.034 57.4021C168.332 25.6997 110.81 31.8218 71.5557 71.0761C32.3014 110.33 26.1793 167.852 57.8817 199.555C89.5841 231.257 147.106 225.135 186.36 185.881Z" fill="#E6E7E8"/>
<path d="M128.957 196.974C166.786 196.974 197.452 166.308 197.452 128.479C197.452 90.6506 166.786 59.9844 128.957 59.9844C91.1282 59.9844 60.4619 90.6506 60.4619 128.479C60.4619 166.308 91.1282 196.974 128.957 196.974Z" fill="#0B183B"/>
<path d="M150.46 142.64V157.672H104.38V145.762L125.162 126.541C126.969 124.844 128.173 123.393 128.776 122.188C129.378 120.983 129.679 119.806 129.679 118.656C129.679 117.232 129.186 116.137 128.201 115.37C127.27 114.549 125.901 114.138 124.094 114.138C122.341 114.138 120.699 114.604 119.165 115.535C117.632 116.465 116.455 117.78 115.633 119.477L101.013 112.167C103.203 108.06 106.406 104.829 110.623 102.474C114.839 100.065 119.932 98.8604 125.901 98.8604C130.446 98.8604 134.471 99.5996 137.975 101.078C141.48 102.557 144.218 104.665 146.189 107.403C148.16 110.141 149.146 113.289 149.146 116.849C149.146 120.025 148.462 123.009 147.093 125.802C145.778 128.54 143.177 131.661 139.289 135.166L131.076 142.64H150.46Z" fill="white"/>
</svg>
