<svg width="132" height="54" viewBox="0 0 132 54" fill="none" xmlns="http://www.w3.org/2000/svg">
<path d="M29.1719 19.1714C30.5139 20.5714 31.4166 21.5314 32.3496 22.4714C34.1066 24.2314 35.8806 25.9714 37.6406 27.7294C37.7497 27.8186 37.8271 27.9406 37.8613 28.0774C37.8956 28.2141 37.8853 28.3582 37.8311 28.4884C37.6891 28.8434 37.3763 28.7964 37.1133 28.8134C32.3313 29.1204 32.3279 29.1204 28.8789 25.6284C27.0629 23.7884 25.2725 21.9234 23.4355 20.1044C22.7446 19.4404 22.1874 18.6506 21.793 17.7774C21.6446 17.4991 21.5676 17.1883 21.5693 16.873C21.5711 16.5577 21.6513 16.2477 21.8027 15.9711C21.9541 15.6945 22.1718 15.46 22.4365 15.2886C22.7012 15.1172 23.005 15.0143 23.3193 14.9894C24.4523 14.8474 25.6128 14.9374 26.7588 14.8894C27.8068 14.8484 28.8594 14.8184 29.9004 14.6844C30.5258 14.6368 31.1172 14.3824 31.582 13.9612C32.0468 13.54 32.358 12.9761 32.4668 12.3584C33.0536 10.5218 33.011 8.54198 32.3457 6.73236C32.2266 6.31718 31.9914 5.94488 31.667 5.65968C31.3426 5.37447 30.9426 5.18834 30.5156 5.12337C29.955 4.99699 29.3881 4.90449 28.8164 4.84637C26.1344 4.81337 23.4545 4.81936 20.7725 4.83136C20.3905 4.8354 20.0114 4.89641 19.6475 5.01237C19.317 5.08712 19.0198 5.26736 18.8008 5.52587C18.5818 5.78437 18.452 6.10712 18.4326 6.44536C18.3826 7.20936 18.3809 7.97636 18.3799 8.74536C18.3799 14.3954 18.3799 20.0457 18.3799 25.6964C18.3799 26.4594 18.3559 27.2254 18.2949 27.9864C18.2918 28.1815 18.2142 28.3681 18.0781 28.508C17.9421 28.648 17.7585 28.7307 17.5635 28.7394C16.3245 28.7774 15.0818 28.7854 13.8418 28.7484C13.4168 28.7364 13.201 28.3614 13.168 27.9594C13.122 27.3884 13.1123 26.8134 13.1123 26.2394C13.1123 19.536 13.1123 12.8327 13.1123 6.12936C13.1123 5.45936 13.1509 4.79036 13.1729 4.12036C13.1508 3.3962 13.3817 2.68692 13.8252 2.11404C14.2687 1.54117 14.8979 1.14038 15.6045 0.980365C16.4291 0.735947 17.2866 0.620913 18.1465 0.639365C22.3592 0.628698 26.5721 0.627031 30.7861 0.634364C31.7417 0.653342 32.6925 0.772663 33.623 0.990363C34.524 1.15992 35.3623 1.56959 36.0498 2.17612C36.7373 2.78265 37.2488 3.56354 37.5293 4.43637C38.8254 7.97879 38.774 11.874 37.3857 15.3814C37.0265 16.3804 36.383 17.2524 35.5342 17.89C34.6853 18.5275 33.6689 18.9028 32.6094 18.9694C31.6784 19.0914 30.7269 19.0834 29.1719 19.1714Z" fill="white"/>
<path d="M39.7988 0.845305C39.9297 0.789261 40.0655 0.744755 40.2041 0.712302C41.8204 0.545282 43.4511 0.566423 45.0625 0.775302C45.8231 2.08819 46.41 3.49382 46.8105 4.9573C48.9892 10.7813 51.1649 16.6063 53.3369 22.4323C53.4057 22.7086 53.5161 22.973 53.6641 23.2163C53.8427 23.4221 54.0785 23.5698 54.3418 23.6403C54.4498 23.6693 54.6866 23.4593 54.7686 23.3063C55.0492 22.8079 55.294 22.2899 55.5 21.7563C57.229 16.9953 58.938 12.2263 60.665 7.4643C61.35 5.5753 62.0646 3.6993 62.7646 1.8143C62.9736 1.2483 63.265 0.727303 63.918 0.683303C65.592 0.579013 67.2716 0.588702 68.9443 0.712302C67.6683 4.0003 66.5283 7.0333 65.3193 10.0373C63.3533 14.9203 61.3426 19.7853 59.3506 24.6573C59.1706 25.0983 58.9757 25.5353 58.8037 25.9793C58.503 26.9548 57.8851 27.8019 57.0479 28.3858C56.2106 28.9698 55.2019 29.2572 54.1826 29.2023C53.1638 29.1974 52.1727 28.8715 51.3496 28.2711C50.5265 27.6706 49.9134 26.826 49.5977 25.8573C49.2907 25.0573 48.9098 24.2793 48.5908 23.4793C45.8748 16.6426 43.1652 9.80297 40.4619 2.9603C40.1899 2.2713 40.0138 1.54531 39.7988 0.845305Z" fill="white"/>
<path d="M70.7544 16.1741C70.7544 12.7241 70.7323 9.27409 70.7603 5.82509C70.7953 1.86309 71.9526 0.673094 75.9136 0.638094C80.9916 0.592094 86.0709 0.625092 91.1499 0.627092C91.5319 0.627092 91.9154 0.640091 92.2954 0.678091C92.5357 0.690022 92.762 0.796294 92.9243 0.973806C93.0867 1.15132 93.1721 1.38573 93.1626 1.62609C93.1706 1.72609 93.1684 1.81809 93.1733 1.91309C93.3333 4.74609 93.2878 4.80509 90.4458 4.81309C86.8038 4.82309 83.164 4.81309 79.522 4.82009C78.8538 4.80346 78.1852 4.83688 77.522 4.92009C77.1322 4.94735 76.7685 5.12646 76.5093 5.41891C76.2501 5.71137 76.1155 6.09383 76.1353 6.48409C76.0863 8.11109 76.0915 9.74209 76.1274 11.3701C76.1484 12.2591 76.4278 12.5131 77.4058 12.5241C79.9928 12.5531 82.5795 12.5381 85.1665 12.5431C85.9335 12.5431 86.7003 12.5351 87.4663 12.5661C88.0993 12.5921 88.5666 12.8461 88.5776 13.5791C88.6116 16.9961 88.9118 16.7791 85.6108 16.7791C83.0238 16.7791 80.4352 16.7631 77.8472 16.7861C76.2112 16.8011 76.1269 16.8931 76.1089 18.6301C76.0849 20.9301 76.1011 23.2301 76.1001 25.5301C76.1001 26.2011 76.1165 26.8721 76.0845 27.5421C76.0355 28.5771 75.797 28.7801 74.648 28.8221C74.264 28.8361 73.8806 28.8291 73.4976 28.8291C70.7606 28.8291 70.7414 29.0031 70.7534 26.2291C70.7654 22.8821 70.7544 19.5291 70.7544 16.1741Z" fill="white"/>
<path d="M117.529 0.629161C121.071 0.629161 124.611 0.629161 128.151 0.629161C128.82 0.629161 129.491 0.629163 130.158 0.674163C130.278 0.672372 130.396 0.695365 130.506 0.74169C130.616 0.788016 130.716 0.856667 130.798 0.943309C130.88 1.02995 130.943 1.1327 130.983 1.24507C131.024 1.35744 131.041 1.47699 131.033 1.59616C131.096 4.93116 131.362 4.83616 128.077 4.82016C126.068 4.81116 124.057 4.79716 122.049 4.82716C120.149 4.85516 120.001 5.03216 119.949 7.02716C119.932 7.60116 119.949 8.17616 119.949 8.75016V25.1072C119.949 25.7772 119.966 26.4482 119.941 27.1172C119.886 28.6392 119.748 28.7782 118.33 28.8292C118.139 28.8362 117.947 28.8292 117.756 28.8292C114.499 28.8292 114.609 29.0292 114.615 25.7292C114.625 19.6052 114.625 13.4808 114.615 7.35616C114.607 4.84116 114.583 4.83216 112.065 4.81516C109.673 4.79816 107.281 4.82116 104.889 4.78816C103.978 4.77516 103.741 4.48816 103.684 3.57416C103.506 0.72216 103.578 0.632164 106.343 0.623164C110.065 0.616164 113.799 0.629161 117.529 0.629161Z" fill="white"/>
<path d="M101.287 15.0232C101.287 19.1312 101.301 23.2392 101.279 27.3472C101.272 28.6422 101.089 28.8262 99.7702 28.8192C95.5572 28.7972 95.9785 29.3622 95.9695 25.3092C95.9568 18.1432 95.9568 10.9765 95.9695 3.80919C95.9695 3.04519 95.9763 2.28119 96.0173 1.51919C96.0182 1.4005 96.044 1.28323 96.0915 1.17446C96.139 1.06569 96.2082 0.967683 96.2947 0.886364C96.3811 0.805045 96.483 0.742102 96.5945 0.701336C96.7059 0.660571 96.8246 0.642828 96.9431 0.649185C97.0381 0.642185 97.1313 0.632187 97.2263 0.633187C101.917 0.692187 101.243 -0.0798118 101.285 4.41519C101.318 7.94919 101.292 11.4852 101.292 15.0152L101.287 15.0232Z" fill="white"/>
<path d="M2.8228 52.2564C2.7768 53.0344 2.33916 53.3774 1.47416 53.3124C0.816163 53.2624 0.533561 52.8894 0.582561 52.1384C0.637561 51.3174 0.962335 51.0684 1.92533 51.1104C2.59833 51.1394 2.8678 51.4884 2.8228 52.2564Z" fill="white"/>
<path d="M6.79921 46.1101C7.53321 46.1281 7.85136 46.4501 7.83436 47.1591C7.81536 48.0101 7.47797 48.3131 6.55897 48.3011C5.80297 48.2911 5.53233 48.0111 5.54433 47.2551C5.56533 46.3961 5.90421 46.0871 6.79921 46.1101Z" fill="white"/>
<path d="M7.78659 52.1373C7.81597 52.272 7.81432 52.4115 7.78171 52.5454C7.74909 52.6793 7.68612 52.804 7.59811 52.91C7.51011 53.016 7.39948 53.1006 7.2739 53.1573C7.14831 53.2141 7.01124 53.2414 6.8735 53.2373C6.2965 53.2573 5.78287 53.1373 5.64987 52.4373C5.61116 52.3069 5.59971 52.1697 5.61765 52.0348C5.63558 51.8999 5.68194 51.7703 5.75339 51.6545C5.82484 51.5387 5.92017 51.4393 6.03268 51.3628C6.1452 51.2862 6.27275 51.2343 6.40671 51.2103C6.55902 51.1597 6.72034 51.1447 6.87936 51.1664C7.03839 51.188 7.19047 51.2458 7.3237 51.3353C7.45693 51.4248 7.56773 51.5436 7.64792 51.6826C7.7281 51.8217 7.77584 51.9772 7.78659 52.1373Z" fill="white"/>
</svg>
